<svg width="337" height="389" viewBox="0 0 337 389" fill="none" xmlns="http://www.w3.org/2000/svg">
<rect x="0.3" y="183.3" width="336.4" height="48.4" rx="24.2" fill="#121212" stroke="white" stroke-width="0.6"/>
<rect x="0.3" y="305.3" width="336.4" height="48.4" rx="24.2" fill="#121212" stroke="white" stroke-width="0.6"/>
<rect x="0.3" y="244.3" width="336.4" height="48.4" rx="24.2" fill="#121212" stroke="white" stroke-width="0.6"/>
<path d="M0 24.5C0 10.969 10.969 0 24.5 0H312.5C326.031 0 337 10.969 337 24.5C337 38.031 326.031 49 312.5 49H24.5C10.969 49 0 38.031 0 24.5Z" fill="#1ED760"/>
<path d="M128.152 20.616C127.917 20.3173 127.608 20.0827 127.224 19.912C126.851 19.7307 126.488 19.64 126.136 19.64C125.955 19.64 125.768 19.656 125.576 19.688C125.395 19.72 125.229 19.784 125.08 19.88C124.931 19.9653 124.803 20.0827 124.696 20.232C124.6 20.3707 124.552 20.552 124.552 20.776C124.552 20.968 124.589 21.128 124.664 21.256C124.749 21.384 124.867 21.496 125.016 21.592C125.176 21.688 125.363 21.7787 125.576 21.864C125.789 21.9387 126.029 22.0187 126.296 22.104C126.68 22.232 127.08 22.376 127.496 22.536C127.912 22.6853 128.291 22.888 128.632 23.144C128.973 23.4 129.256 23.72 129.48 24.104C129.704 24.4773 129.816 24.9467 129.816 25.512C129.816 26.1627 129.693 26.728 129.448 27.208C129.213 27.6773 128.893 28.0667 128.488 28.376C128.083 28.6853 127.619 28.9147 127.096 29.064C126.573 29.2133 126.035 29.288 125.48 29.288C124.669 29.288 123.885 29.1493 123.128 28.872C122.371 28.584 121.741 28.1787 121.24 27.656L123.032 25.832C123.309 26.1733 123.672 26.4613 124.12 26.696C124.579 26.92 125.032 27.032 125.48 27.032C125.683 27.032 125.88 27.0107 126.072 26.968C126.264 26.9253 126.429 26.856 126.568 26.76C126.717 26.664 126.835 26.536 126.92 26.376C127.005 26.216 127.048 26.024 127.048 25.8C127.048 25.5867 126.995 25.4053 126.888 25.256C126.781 25.1067 126.627 24.9733 126.424 24.856C126.232 24.728 125.987 24.616 125.688 24.52C125.4 24.4133 125.069 24.3013 124.696 24.184C124.333 24.0667 123.976 23.928 123.624 23.768C123.283 23.608 122.973 23.4053 122.696 23.16C122.429 22.904 122.211 22.6 122.04 22.248C121.88 21.8853 121.8 21.448 121.8 20.936C121.8 20.3067 121.928 19.768 122.184 19.32C122.44 18.872 122.776 18.504 123.192 18.216C123.608 17.928 124.077 17.72 124.6 17.592C125.123 17.4533 125.651 17.384 126.184 17.384C126.824 17.384 127.475 17.5013 128.136 17.736C128.808 17.9707 129.395 18.3173 129.896 18.776L128.152 20.616ZM134.325 18.488C134.325 18.6907 134.282 18.8827 134.197 19.064C134.122 19.2347 134.016 19.384 133.877 19.512C133.749 19.64 133.589 19.7413 133.397 19.816C133.216 19.8907 133.024 19.928 132.821 19.928C132.394 19.928 132.037 19.7893 131.749 19.512C131.461 19.224 131.317 18.8827 131.317 18.488C131.317 18.296 131.354 18.1147 131.429 17.944C131.504 17.7627 131.61 17.608 131.749 17.48C131.888 17.352 132.048 17.2507 132.229 17.176C132.41 17.0907 132.608 17.048 132.821 17.048C133.024 17.048 133.216 17.0853 133.397 17.16C133.589 17.2347 133.749 17.336 133.877 17.464C134.016 17.592 134.122 17.7467 134.197 17.928C134.282 18.0987 134.325 18.2853 134.325 18.488ZM131.509 29V21.032H134.133V29H131.509ZM144.66 28.248C144.66 29.0267 144.548 29.704 144.324 30.28C144.1 30.856 143.785 31.3307 143.38 31.704C142.974 32.088 142.478 32.3707 141.892 32.552C141.316 32.744 140.676 32.84 139.972 32.84C139.268 32.84 138.542 32.7333 137.796 32.52C137.06 32.3067 136.42 31.9973 135.876 31.592L137.188 29.72C137.572 30.0613 137.993 30.312 138.452 30.472C138.921 30.6427 139.38 30.728 139.828 30.728C140.596 30.728 141.161 30.5253 141.524 30.12C141.897 29.7147 142.084 29.176 142.084 28.504V28.024H142.036C141.79 28.344 141.46 28.6 141.044 28.792C140.628 28.984 140.153 29.08 139.62 29.08C139.012 29.08 138.473 28.9733 138.004 28.76C137.534 28.536 137.134 28.2373 136.804 27.864C136.484 27.4907 136.238 27.0587 136.068 26.568C135.897 26.0667 135.812 25.5387 135.812 24.984C135.812 24.4293 135.897 23.9013 136.068 23.4C136.238 22.8987 136.484 22.456 136.804 22.072C137.134 21.688 137.534 21.384 138.004 21.16C138.473 20.9253 139.006 20.808 139.604 20.808C140.105 20.808 140.585 20.9093 141.044 21.112C141.502 21.3147 141.87 21.6293 142.148 22.056H142.18V21.032H144.66V28.248ZM142.164 24.968C142.164 24.7013 142.116 24.4453 142.02 24.2C141.934 23.9547 141.806 23.7413 141.636 23.56C141.465 23.368 141.262 23.2187 141.028 23.112C140.793 23.0053 140.526 22.952 140.228 22.952C139.929 22.952 139.662 23.0053 139.428 23.112C139.204 23.2187 139.012 23.3627 138.852 23.544C138.692 23.7253 138.569 23.9387 138.484 24.184C138.398 24.4293 138.356 24.6907 138.356 24.968C138.356 25.2347 138.398 25.4907 138.484 25.736C138.569 25.9813 138.692 26.2 138.852 26.392C139.012 26.5733 139.204 26.7227 139.428 26.84C139.662 26.9467 139.929 27 140.228 27C140.526 27 140.793 26.9467 141.028 26.84C141.273 26.7227 141.476 26.5733 141.636 26.392C141.806 26.2107 141.934 25.9973 142.02 25.752C142.116 25.5067 142.164 25.2453 142.164 24.968ZM151.975 29V24.648C151.975 24.424 151.953 24.2107 151.911 24.008C151.879 23.8053 151.82 23.6293 151.735 23.48C151.649 23.32 151.527 23.1973 151.367 23.112C151.217 23.016 151.025 22.968 150.791 22.968C150.556 22.968 150.348 23.016 150.167 23.112C149.996 23.1973 149.852 23.32 149.735 23.48C149.617 23.64 149.527 23.8267 149.463 24.04C149.409 24.2427 149.383 24.456 149.383 24.68V29H146.743V21.032H149.287V22.136H149.319C149.415 21.9653 149.537 21.8 149.687 21.64C149.847 21.4693 150.028 21.3253 150.231 21.208C150.444 21.0907 150.673 20.9947 150.919 20.92C151.164 20.8453 151.425 20.808 151.703 20.808C152.236 20.808 152.689 20.904 153.063 21.096C153.436 21.288 153.735 21.5387 153.959 21.848C154.193 22.1467 154.359 22.4933 154.455 22.888C154.561 23.2827 154.615 23.6773 154.615 24.072V29H151.975ZM165.85 29V27.896H165.818C165.722 28.0773 165.594 28.248 165.434 28.408C165.285 28.568 165.103 28.7067 164.89 28.824C164.687 28.9413 164.458 29.0373 164.202 29.112C163.957 29.1867 163.695 29.224 163.418 29.224C162.885 29.224 162.431 29.128 162.058 28.936C161.695 28.744 161.397 28.4987 161.162 28.2C160.938 27.8907 160.773 27.544 160.666 27.16C160.57 26.7653 160.522 26.3653 160.522 25.96V21.032H163.162V25.352C163.162 25.576 163.178 25.7893 163.21 25.992C163.242 26.1947 163.301 26.376 163.386 26.536C163.482 26.696 163.605 26.824 163.754 26.92C163.903 27.0053 164.101 27.048 164.346 27.048C164.805 27.048 165.151 26.8773 165.386 26.536C165.631 26.1947 165.754 25.7947 165.754 25.336V21.032H168.378V29H165.85ZM179.294 24.984C179.294 25.5387 179.209 26.072 179.038 26.584C178.868 27.096 178.617 27.5493 178.286 27.944C177.966 28.328 177.572 28.6373 177.102 28.872C176.633 29.1067 176.1 29.224 175.502 29.224C175.012 29.224 174.548 29.128 174.11 28.936C173.673 28.7333 173.332 28.4613 173.086 28.12H173.054V32.84H170.43V21.032H172.926V22.008H172.974C173.22 21.688 173.556 21.4107 173.982 21.176C174.42 20.9307 174.932 20.808 175.518 20.808C176.094 20.808 176.617 20.92 177.086 21.144C177.556 21.368 177.95 21.672 178.27 22.056C178.601 22.44 178.852 22.888 179.022 23.4C179.204 23.9013 179.294 24.4293 179.294 24.984ZM176.75 24.984C176.75 24.728 176.708 24.4773 176.622 24.232C176.548 23.9867 176.43 23.7733 176.27 23.592C176.121 23.4 175.929 23.2453 175.694 23.128C175.46 23.0107 175.188 22.952 174.878 22.952C174.58 22.952 174.313 23.0107 174.078 23.128C173.844 23.2453 173.641 23.4 173.47 23.592C173.31 23.784 173.182 24.0027 173.086 24.248C173.001 24.4933 172.958 24.744 172.958 25C172.958 25.256 173.001 25.5067 173.086 25.752C173.182 25.9973 173.31 26.216 173.47 26.408C173.641 26.6 173.844 26.7547 174.078 26.872C174.313 26.9893 174.58 27.048 174.878 27.048C175.188 27.048 175.46 26.9893 175.694 26.872C175.929 26.7547 176.121 26.6 176.27 26.408C176.43 26.216 176.548 25.9973 176.622 25.752C176.708 25.496 176.75 25.24 176.75 24.984ZM189.89 18.84C189.794 18.808 189.682 18.7813 189.554 18.76C189.426 18.7387 189.298 18.728 189.17 18.728C188.925 18.728 188.727 18.7707 188.578 18.856C188.429 18.9413 188.311 19.0587 188.226 19.208C188.141 19.3467 188.082 19.5067 188.05 19.688C188.018 19.8693 188.002 20.0507 188.002 20.232V21.032H189.778V23H188.002V29H185.378V23H183.922V21.032H185.378V20.264C185.378 19.7733 185.431 19.3093 185.538 18.872C185.645 18.424 185.826 18.0347 186.082 17.704C186.349 17.3627 186.701 17.096 187.138 16.904C187.586 16.7013 188.141 16.6 188.802 16.6C189.026 16.6 189.245 16.616 189.458 16.648C189.682 16.6693 189.885 16.7067 190.066 16.76L189.89 18.84ZM195.942 23.176C195.825 23.144 195.707 23.1227 195.59 23.112C195.483 23.1013 195.377 23.096 195.27 23.096C194.918 23.096 194.619 23.16 194.374 23.288C194.139 23.416 193.947 23.5707 193.798 23.752C193.659 23.9333 193.558 24.1307 193.494 24.344C193.43 24.5573 193.398 24.744 193.398 24.904V29H190.774V21.032H193.302V22.184H193.334C193.537 21.7787 193.825 21.448 194.198 21.192C194.571 20.936 195.003 20.808 195.494 20.808C195.601 20.808 195.702 20.8133 195.798 20.824C195.905 20.8347 195.99 20.8507 196.054 20.872L195.942 23.176ZM202.325 24.104C202.325 23.688 202.191 23.3307 201.925 23.032C201.669 22.7333 201.279 22.584 200.757 22.584C200.501 22.584 200.266 22.6267 200.053 22.712C199.839 22.7867 199.653 22.8933 199.493 23.032C199.333 23.1707 199.205 23.336 199.109 23.528C199.013 23.7093 198.959 23.9013 198.949 24.104H202.325ZM204.741 25.112C204.741 25.2187 204.741 25.3253 204.741 25.432C204.741 25.5387 204.735 25.64 204.725 25.736H198.949C198.97 25.96 199.034 26.1627 199.141 26.344C199.258 26.5253 199.402 26.6853 199.573 26.824C199.754 26.952 199.951 27.0533 200.165 27.128C200.389 27.2027 200.618 27.24 200.853 27.24C201.269 27.24 201.621 27.1653 201.909 27.016C202.197 26.856 202.431 26.6533 202.613 26.408L204.437 27.56C204.063 28.104 203.567 28.5253 202.949 28.824C202.341 29.112 201.631 29.256 200.821 29.256C200.223 29.256 199.658 29.1653 199.125 28.984C198.591 28.792 198.122 28.52 197.717 28.168C197.322 27.8053 197.007 27.3627 196.773 26.84C196.549 26.3173 196.437 25.72 196.437 25.048C196.437 24.3973 196.549 23.8107 196.773 23.288C196.997 22.7547 197.301 22.3067 197.685 21.944C198.069 21.5707 198.522 21.2827 199.045 21.08C199.567 20.8773 200.133 20.776 200.741 20.776C201.327 20.776 201.866 20.8773 202.357 21.08C202.847 21.272 203.269 21.5547 203.621 21.928C203.973 22.3013 204.245 22.7547 204.437 23.288C204.639 23.8213 204.741 24.4293 204.741 25.112ZM211.856 24.104C211.856 23.688 211.722 23.3307 211.456 23.032C211.2 22.7333 210.81 22.584 210.288 22.584C210.032 22.584 209.797 22.6267 209.584 22.712C209.37 22.7867 209.184 22.8933 209.024 23.032C208.864 23.1707 208.736 23.336 208.64 23.528C208.544 23.7093 208.49 23.9013 208.48 24.104H211.856ZM214.272 25.112C214.272 25.2187 214.272 25.3253 214.272 25.432C214.272 25.5387 214.266 25.64 214.256 25.736H208.48C208.501 25.96 208.565 26.1627 208.672 26.344C208.789 26.5253 208.933 26.6853 209.104 26.824C209.285 26.952 209.482 27.0533 209.696 27.128C209.92 27.2027 210.149 27.24 210.384 27.24C210.8 27.24 211.152 27.1653 211.44 27.016C211.728 26.856 211.962 26.6533 212.144 26.408L213.968 27.56C213.594 28.104 213.098 28.5253 212.48 28.824C211.872 29.112 211.162 29.256 210.352 29.256C209.754 29.256 209.189 29.1653 208.656 28.984C208.122 28.792 207.653 28.52 207.248 28.168C206.853 27.8053 206.538 27.3627 206.304 26.84C206.08 26.3173 205.968 25.72 205.968 25.048C205.968 24.3973 206.08 23.8107 206.304 23.288C206.528 22.7547 206.832 22.3067 207.216 21.944C207.6 21.5707 208.053 21.2827 208.576 21.08C209.098 20.8773 209.664 20.776 210.272 20.776C210.858 20.776 211.397 20.8773 211.888 21.08C212.378 21.272 212.8 21.5547 213.152 21.928C213.504 22.3013 213.776 22.7547 213.968 23.288C214.17 23.8213 214.272 24.4293 214.272 25.112Z" fill="black"/>
<path d="M94.136 210.432C93.6347 211.008 93.016 211.467 92.28 211.808C91.544 212.139 90.696 212.304 89.736 212.304C88.8613 212.304 88.0507 212.16 87.304 211.872C86.568 211.584 85.928 211.179 85.384 210.656C84.84 210.123 84.4133 209.488 84.104 208.752C83.7947 208.016 83.64 207.205 83.64 206.32C83.64 205.413 83.7947 204.592 84.104 203.856C84.424 203.12 84.8613 202.496 85.416 201.984C85.9707 201.461 86.6213 201.061 87.368 200.784C88.1147 200.507 88.92 200.368 89.784 200.368C90.584 200.368 91.368 200.512 92.136 200.8C92.9147 201.077 93.544 201.488 94.024 202.032L92.168 203.888C91.912 203.536 91.576 203.275 91.16 203.104C90.744 202.933 90.3173 202.848 89.88 202.848C89.4 202.848 88.9573 202.939 88.552 203.12C88.1573 203.291 87.816 203.531 87.528 203.84C87.24 204.149 87.016 204.517 86.856 204.944C86.696 205.36 86.616 205.819 86.616 206.32C86.616 206.832 86.696 207.301 86.856 207.728C87.016 208.155 87.2347 208.523 87.512 208.832C87.8 209.131 88.1413 209.365 88.536 209.536C88.9307 209.707 89.3627 209.792 89.832 209.792C90.376 209.792 90.8507 209.685 91.256 209.472C91.6613 209.259 91.9867 208.981 92.232 208.64L94.136 210.432ZM103.425 207.984C103.425 208.635 103.308 209.227 103.073 209.76C102.838 210.283 102.518 210.731 102.113 211.104C101.708 211.467 101.238 211.749 100.705 211.952C100.172 212.155 99.6011 212.256 98.9931 212.256C98.3958 212.256 97.8251 212.155 97.2811 211.952C96.7478 211.749 96.2785 211.467 95.8731 211.104C95.4785 210.731 95.1638 210.283 94.9291 209.76C94.6945 209.227 94.5771 208.635 94.5771 207.984C94.5771 207.333 94.6945 206.747 94.9291 206.224C95.1638 205.701 95.4785 205.259 95.8731 204.896C96.2785 204.533 96.7478 204.256 97.2811 204.064C97.8251 203.872 98.3958 203.776 98.9931 203.776C99.6011 203.776 100.172 203.872 100.705 204.064C101.238 204.256 101.708 204.533 102.113 204.896C102.518 205.259 102.838 205.701 103.073 206.224C103.308 206.747 103.425 207.333 103.425 207.984ZM100.897 207.984C100.897 207.728 100.854 207.477 100.769 207.232C100.684 206.987 100.561 206.773 100.401 206.592C100.241 206.4 100.044 206.245 99.8091 206.128C99.5745 206.011 99.3025 205.952 98.9931 205.952C98.6838 205.952 98.4118 206.011 98.1771 206.128C97.9425 206.245 97.7451 206.4 97.5851 206.592C97.4358 206.773 97.3185 206.987 97.2331 207.232C97.1585 207.477 97.1211 207.728 97.1211 207.984C97.1211 208.24 97.1585 208.491 97.2331 208.736C97.3185 208.981 97.4411 209.205 97.6011 209.408C97.7611 209.6 97.9585 209.755 98.1931 209.872C98.4278 209.989 98.6998 210.048 99.0091 210.048C99.3185 210.048 99.5905 209.989 99.8251 209.872C100.06 209.755 100.257 209.6 100.417 209.408C100.577 209.205 100.694 208.981 100.769 208.736C100.854 208.491 100.897 208.24 100.897 207.984ZM110.319 212V207.648C110.319 207.424 110.297 207.211 110.255 207.008C110.223 206.805 110.164 206.629 110.079 206.48C109.993 206.32 109.871 206.197 109.711 206.112C109.561 206.016 109.369 205.968 109.135 205.968C108.9 205.968 108.692 206.016 108.511 206.112C108.34 206.197 108.196 206.32 108.079 206.48C107.961 206.64 107.871 206.827 107.807 207.04C107.753 207.243 107.727 207.456 107.727 207.68V212H105.087V204.032H107.631V205.136H107.663C107.759 204.965 107.881 204.8 108.031 204.64C108.191 204.469 108.372 204.325 108.575 204.208C108.788 204.091 109.017 203.995 109.263 203.92C109.508 203.845 109.769 203.808 110.047 203.808C110.58 203.808 111.033 203.904 111.407 204.096C111.78 204.288 112.079 204.539 112.303 204.848C112.537 205.147 112.703 205.493 112.799 205.888C112.905 206.283 112.959 206.677 112.959 207.072V212H110.319ZM117.794 206V209.04C117.794 209.413 117.863 209.696 118.002 209.888C118.151 210.069 118.413 210.16 118.786 210.16C118.914 210.16 119.047 210.149 119.186 210.128C119.335 210.107 119.458 210.075 119.554 210.032L119.586 211.952C119.405 212.016 119.175 212.069 118.898 212.112C118.621 212.165 118.343 212.192 118.066 212.192C117.533 212.192 117.085 212.128 116.722 212C116.359 211.861 116.066 211.669 115.842 211.424C115.629 211.168 115.474 210.869 115.378 210.528C115.282 210.176 115.234 209.787 115.234 209.36V206H113.954V204.032H115.218V201.936H117.794V204.032H119.666V206H117.794ZM123.747 201.488C123.747 201.691 123.704 201.883 123.619 202.064C123.544 202.235 123.438 202.384 123.299 202.512C123.171 202.64 123.011 202.741 122.819 202.816C122.638 202.891 122.446 202.928 122.243 202.928C121.816 202.928 121.459 202.789 121.171 202.512C120.883 202.224 120.739 201.883 120.739 201.488C120.739 201.296 120.776 201.115 120.851 200.944C120.926 200.763 121.032 200.608 121.171 200.48C121.31 200.352 121.47 200.251 121.651 200.176C121.832 200.091 122.03 200.048 122.243 200.048C122.446 200.048 122.638 200.085 122.819 200.16C123.011 200.235 123.171 200.336 123.299 200.464C123.438 200.592 123.544 200.747 123.619 200.928C123.704 201.099 123.747 201.285 123.747 201.488ZM120.931 212V204.032H123.555V212H120.931ZM130.865 212V207.648C130.865 207.424 130.844 207.211 130.801 207.008C130.769 206.805 130.711 206.629 130.625 206.48C130.54 206.32 130.417 206.197 130.257 206.112C130.108 206.016 129.916 205.968 129.681 205.968C129.447 205.968 129.239 206.016 129.057 206.112C128.887 206.197 128.743 206.32 128.625 206.48C128.508 206.64 128.417 206.827 128.353 207.04C128.3 207.243 128.273 207.456 128.273 207.68V212H125.633V204.032H128.177V205.136H128.209C128.305 204.965 128.428 204.8 128.577 204.64C128.737 204.469 128.919 204.325 129.121 204.208C129.335 204.091 129.564 203.995 129.809 203.92C130.055 203.845 130.316 203.808 130.593 203.808C131.127 203.808 131.58 203.904 131.953 204.096C132.327 204.288 132.625 204.539 132.849 204.848C133.084 205.147 133.249 205.493 133.345 205.888C133.452 206.283 133.505 206.677 133.505 207.072V212H130.865ZM140.741 212V210.896H140.709C140.613 211.077 140.485 211.248 140.325 211.408C140.175 211.568 139.994 211.707 139.781 211.824C139.578 211.941 139.349 212.037 139.093 212.112C138.847 212.187 138.586 212.224 138.309 212.224C137.775 212.224 137.322 212.128 136.949 211.936C136.586 211.744 136.287 211.499 136.053 211.2C135.829 210.891 135.663 210.544 135.557 210.16C135.461 209.765 135.413 209.365 135.413 208.96V204.032H138.053V208.352C138.053 208.576 138.069 208.789 138.101 208.992C138.133 209.195 138.191 209.376 138.277 209.536C138.373 209.696 138.495 209.824 138.645 209.92C138.794 210.005 138.991 210.048 139.237 210.048C139.695 210.048 140.042 209.877 140.277 209.536C140.522 209.195 140.645 208.795 140.645 208.336V204.032H143.269V212H140.741ZM150.809 207.104C150.809 206.688 150.676 206.331 150.409 206.032C150.153 205.733 149.764 205.584 149.241 205.584C148.985 205.584 148.75 205.627 148.537 205.712C148.324 205.787 148.137 205.893 147.977 206.032C147.817 206.171 147.689 206.336 147.593 206.528C147.497 206.709 147.444 206.901 147.433 207.104H150.809ZM153.225 208.112C153.225 208.219 153.225 208.325 153.225 208.432C153.225 208.539 153.22 208.64 153.209 208.736H147.433C147.454 208.96 147.518 209.163 147.625 209.344C147.742 209.525 147.886 209.685 148.057 209.824C148.238 209.952 148.436 210.053 148.649 210.128C148.873 210.203 149.102 210.24 149.337 210.24C149.753 210.24 150.105 210.165 150.393 210.016C150.681 209.856 150.916 209.653 151.097 209.408L152.921 210.56C152.548 211.104 152.052 211.525 151.433 211.824C150.825 212.112 150.116 212.256 149.305 212.256C148.708 212.256 148.142 212.165 147.609 211.984C147.076 211.792 146.606 211.52 146.201 211.168C145.806 210.805 145.492 210.363 145.257 209.84C145.033 209.317 144.921 208.72 144.921 208.048C144.921 207.397 145.033 206.811 145.257 206.288C145.481 205.755 145.785 205.307 146.169 204.944C146.553 204.571 147.006 204.283 147.529 204.08C148.052 203.877 148.617 203.776 149.225 203.776C149.812 203.776 150.35 203.877 150.841 204.08C151.332 204.272 151.753 204.555 152.105 204.928C152.457 205.301 152.729 205.755 152.921 206.288C153.124 206.821 153.225 207.429 153.225 208.112ZM168.996 212H166.356L164.788 207.04H164.756L163.22 212H160.58L157.828 204.032H160.66L162.036 209.072H162.084L163.508 204.032H166.148L167.62 209.072H167.652L169.044 204.032H171.764L168.996 212ZM175.638 201.488C175.638 201.691 175.595 201.883 175.51 202.064C175.435 202.235 175.328 202.384 175.19 202.512C175.062 202.64 174.902 202.741 174.71 202.816C174.528 202.891 174.336 202.928 174.134 202.928C173.707 202.928 173.35 202.789 173.062 202.512C172.774 202.224 172.63 201.883 172.63 201.488C172.63 201.296 172.667 201.115 172.742 200.944C172.816 200.763 172.923 200.608 173.062 200.48C173.2 200.352 173.36 200.251 173.542 200.176C173.723 200.091 173.92 200.048 174.134 200.048C174.336 200.048 174.528 200.085 174.71 200.16C174.902 200.235 175.062 200.336 175.19 200.464C175.328 200.592 175.435 200.747 175.51 200.928C175.595 201.099 175.638 201.285 175.638 201.488ZM172.822 212V204.032H175.446V212H172.822ZM180.372 206V209.04C180.372 209.413 180.441 209.696 180.58 209.888C180.729 210.069 180.991 210.16 181.364 210.16C181.492 210.16 181.625 210.149 181.764 210.128C181.913 210.107 182.036 210.075 182.132 210.032L182.164 211.952C181.983 212.016 181.753 212.069 181.476 212.112C181.199 212.165 180.921 212.192 180.644 212.192C180.111 212.192 179.663 212.128 179.3 212C178.937 211.861 178.644 211.669 178.42 211.424C178.207 211.168 178.052 210.869 177.956 210.528C177.86 210.176 177.812 209.787 177.812 209.36V206H176.532V204.032H177.796V201.936H180.372V204.032H182.244V206H180.372ZM188.725 212V207.68C188.725 207.456 188.709 207.243 188.677 207.04C188.645 206.837 188.581 206.661 188.485 206.512C188.4 206.352 188.282 206.229 188.133 206.144C187.984 206.048 187.792 206 187.557 206C187.098 206 186.746 206.165 186.501 206.496C186.256 206.816 186.133 207.216 186.133 207.696V212H183.509V199.904H186.133V205.04H186.165C186.346 204.72 186.634 204.437 187.029 204.192C187.424 203.936 187.898 203.808 188.453 203.808C188.997 203.808 189.45 203.904 189.813 204.096C190.186 204.288 190.485 204.539 190.709 204.848C190.944 205.147 191.109 205.493 191.205 205.888C191.312 206.283 191.365 206.677 191.365 207.072V212H188.725ZM207.56 211.312C207.005 211.6 206.355 211.835 205.608 212.016C204.872 212.197 204.067 212.288 203.192 212.288C202.285 212.288 201.448 212.144 200.68 211.856C199.923 211.568 199.267 211.163 198.712 210.64C198.168 210.117 197.741 209.493 197.432 208.768C197.123 208.032 196.968 207.216 196.968 206.32C196.968 205.413 197.123 204.592 197.432 203.856C197.752 203.12 198.189 202.496 198.744 201.984C199.299 201.461 199.949 201.061 200.696 200.784C201.443 200.507 202.248 200.368 203.112 200.368C204.008 200.368 204.84 200.507 205.608 200.784C206.376 201.051 207 201.413 207.48 201.872L205.752 203.84C205.485 203.531 205.133 203.28 204.696 203.088C204.259 202.885 203.763 202.784 203.208 202.784C202.728 202.784 202.285 202.875 201.88 203.056C201.475 203.227 201.123 203.472 200.824 203.792C200.525 204.101 200.291 204.475 200.12 204.912C199.96 205.339 199.88 205.808 199.88 206.32C199.88 206.843 199.955 207.323 200.104 207.76C200.253 208.197 200.472 208.576 200.76 208.896C201.059 209.205 201.421 209.451 201.848 209.632C202.285 209.803 202.781 209.888 203.336 209.888C203.656 209.888 203.96 209.867 204.248 209.824C204.536 209.771 204.803 209.691 205.048 209.584V207.52H202.888V205.312H207.56V211.312ZM218.097 207.984C218.097 208.635 217.98 209.227 217.745 209.76C217.51 210.283 217.19 210.731 216.785 211.104C216.38 211.467 215.91 211.749 215.377 211.952C214.844 212.155 214.273 212.256 213.665 212.256C213.068 212.256 212.497 212.155 211.953 211.952C211.42 211.749 210.95 211.467 210.545 211.104C210.15 210.731 209.836 210.283 209.601 209.76C209.366 209.227 209.249 208.635 209.249 207.984C209.249 207.333 209.366 206.747 209.601 206.224C209.836 205.701 210.15 205.259 210.545 204.896C210.95 204.533 211.42 204.256 211.953 204.064C212.497 203.872 213.068 203.776 213.665 203.776C214.273 203.776 214.844 203.872 215.377 204.064C215.91 204.256 216.38 204.533 216.785 204.896C217.19 205.259 217.51 205.701 217.745 206.224C217.98 206.747 218.097 207.333 218.097 207.984ZM215.569 207.984C215.569 207.728 215.526 207.477 215.441 207.232C215.356 206.987 215.233 206.773 215.073 206.592C214.913 206.4 214.716 206.245 214.481 206.128C214.246 206.011 213.974 205.952 213.665 205.952C213.356 205.952 213.084 206.011 212.849 206.128C212.614 206.245 212.417 206.4 212.257 206.592C212.108 206.773 211.99 206.987 211.905 207.232C211.83 207.477 211.793 207.728 211.793 207.984C211.793 208.24 211.83 208.491 211.905 208.736C211.99 208.981 212.113 209.205 212.273 209.408C212.433 209.6 212.63 209.755 212.865 209.872C213.1 209.989 213.372 210.048 213.681 210.048C213.99 210.048 214.262 209.989 214.497 209.872C214.732 209.755 214.929 209.6 215.089 209.408C215.249 209.205 215.366 208.981 215.441 208.736C215.526 208.491 215.569 208.24 215.569 207.984ZM228.206 207.984C228.206 208.635 228.089 209.227 227.854 209.76C227.62 210.283 227.3 210.731 226.894 211.104C226.489 211.467 226.02 211.749 225.486 211.952C224.953 212.155 224.382 212.256 223.774 212.256C223.177 212.256 222.606 212.155 222.062 211.952C221.529 211.749 221.06 211.467 220.654 211.104C220.26 210.731 219.945 210.283 219.71 209.76C219.476 209.227 219.358 208.635 219.358 207.984C219.358 207.333 219.476 206.747 219.71 206.224C219.945 205.701 220.26 205.259 220.654 204.896C221.06 204.533 221.529 204.256 222.062 204.064C222.606 203.872 223.177 203.776 223.774 203.776C224.382 203.776 224.953 203.872 225.486 204.064C226.02 204.256 226.489 204.533 226.894 204.896C227.3 205.259 227.62 205.701 227.854 206.224C228.089 206.747 228.206 207.333 228.206 207.984ZM225.678 207.984C225.678 207.728 225.636 207.477 225.55 207.232C225.465 206.987 225.342 206.773 225.182 206.592C225.022 206.4 224.825 206.245 224.59 206.128C224.356 206.011 224.084 205.952 223.774 205.952C223.465 205.952 223.193 206.011 222.958 206.128C222.724 206.245 222.526 206.4 222.366 206.592C222.217 206.773 222.1 206.987 222.014 207.232C221.94 207.477 221.902 207.728 221.902 207.984C221.902 208.24 221.94 208.491 222.014 208.736C222.1 208.981 222.222 209.205 222.382 209.408C222.542 209.6 222.74 209.755 222.974 209.872C223.209 209.989 223.481 210.048 223.79 210.048C224.1 210.048 224.372 209.989 224.606 209.872C224.841 209.755 225.038 209.6 225.198 209.408C225.358 209.205 225.476 208.981 225.55 208.736C225.636 208.491 225.678 208.24 225.678 207.984ZM238.316 211.248C238.316 212.027 238.204 212.704 237.98 213.28C237.756 213.856 237.441 214.331 237.036 214.704C236.63 215.088 236.134 215.371 235.548 215.552C234.972 215.744 234.332 215.84 233.628 215.84C232.924 215.84 232.198 215.733 231.452 215.52C230.716 215.307 230.076 214.997 229.532 214.592L230.844 212.72C231.228 213.061 231.649 213.312 232.108 213.472C232.577 213.643 233.036 213.728 233.484 213.728C234.252 213.728 234.817 213.525 235.18 213.12C235.553 212.715 235.74 212.176 235.74 211.504V211.024H235.692C235.446 211.344 235.116 211.6 234.7 211.792C234.284 211.984 233.809 212.08 233.276 212.08C232.668 212.08 232.129 211.973 231.66 211.76C231.19 211.536 230.79 211.237 230.46 210.864C230.14 210.491 229.894 210.059 229.724 209.568C229.553 209.067 229.468 208.539 229.468 207.984C229.468 207.429 229.553 206.901 229.724 206.4C229.894 205.899 230.14 205.456 230.46 205.072C230.79 204.688 231.19 204.384 231.66 204.16C232.129 203.925 232.662 203.808 233.26 203.808C233.761 203.808 234.241 203.909 234.7 204.112C235.158 204.315 235.526 204.629 235.804 205.056H235.836V204.032H238.316V211.248ZM235.82 207.968C235.82 207.701 235.772 207.445 235.676 207.2C235.59 206.955 235.462 206.741 235.292 206.56C235.121 206.368 234.918 206.219 234.684 206.112C234.449 206.005 234.182 205.952 233.884 205.952C233.585 205.952 233.318 206.005 233.084 206.112C232.86 206.219 232.668 206.363 232.508 206.544C232.348 206.725 232.225 206.939 232.14 207.184C232.054 207.429 232.012 207.691 232.012 207.968C232.012 208.235 232.054 208.491 232.14 208.736C232.225 208.981 232.348 209.2 232.508 209.392C232.668 209.573 232.86 209.723 233.084 209.84C233.318 209.947 233.585 210 233.884 210C234.182 210 234.449 209.947 234.684 209.84C234.929 209.723 235.132 209.573 235.292 209.392C235.462 209.211 235.59 208.997 235.676 208.752C235.772 208.507 235.82 208.245 235.82 207.968ZM240.431 212V199.904H243.087V212H240.431ZM250.653 207.104C250.653 206.688 250.519 206.331 250.253 206.032C249.997 205.733 249.607 205.584 249.085 205.584C248.829 205.584 248.594 205.627 248.381 205.712C248.167 205.787 247.981 205.893 247.821 206.032C247.661 206.171 247.533 206.336 247.437 206.528C247.341 206.709 247.287 206.901 247.277 207.104H250.653ZM253.069 208.112C253.069 208.219 253.069 208.325 253.069 208.432C253.069 208.539 253.063 208.64 253.053 208.736H247.277C247.298 208.96 247.362 209.163 247.469 209.344C247.586 209.525 247.73 209.685 247.901 209.824C248.082 209.952 248.279 210.053 248.493 210.128C248.717 210.203 248.946 210.24 249.181 210.24C249.597 210.24 249.949 210.165 250.237 210.016C250.525 209.856 250.759 209.653 250.941 209.408L252.765 210.56C252.391 211.104 251.895 211.525 251.277 211.824C250.669 212.112 249.959 212.256 249.149 212.256C248.551 212.256 247.986 212.165 247.453 211.984C246.919 211.792 246.45 211.52 246.045 211.168C245.65 210.805 245.335 210.363 245.101 209.84C244.877 209.317 244.765 208.72 244.765 208.048C244.765 207.397 244.877 206.811 245.101 206.288C245.325 205.755 245.629 205.307 246.013 204.944C246.397 204.571 246.85 204.283 247.373 204.08C247.895 203.877 248.461 203.776 249.069 203.776C249.655 203.776 250.194 203.877 250.685 204.08C251.175 204.272 251.597 204.555 251.949 204.928C252.301 205.301 252.573 205.755 252.765 206.288C252.967 206.821 253.069 207.429 253.069 208.112Z" fill="#F5F5F5"/>
<path d="M94.136 332.432C93.6347 333.008 93.016 333.467 92.28 333.808C91.544 334.139 90.696 334.304 89.736 334.304C88.8613 334.304 88.0507 334.16 87.304 333.872C86.568 333.584 85.928 333.179 85.384 332.656C84.84 332.123 84.4133 331.488 84.104 330.752C83.7947 330.016 83.64 329.205 83.64 328.32C83.64 327.413 83.7947 326.592 84.104 325.856C84.424 325.12 84.8613 324.496 85.416 323.984C85.9707 323.461 86.6213 323.061 87.368 322.784C88.1147 322.507 88.92 322.368 89.784 322.368C90.584 322.368 91.368 322.512 92.136 322.8C92.9147 323.077 93.544 323.488 94.024 324.032L92.168 325.888C91.912 325.536 91.576 325.275 91.16 325.104C90.744 324.933 90.3173 324.848 89.88 324.848C89.4 324.848 88.9573 324.939 88.552 325.12C88.1573 325.291 87.816 325.531 87.528 325.84C87.24 326.149 87.016 326.517 86.856 326.944C86.696 327.36 86.616 327.819 86.616 328.32C86.616 328.832 86.696 329.301 86.856 329.728C87.016 330.155 87.2347 330.523 87.512 330.832C87.8 331.131 88.1413 331.365 88.536 331.536C88.9307 331.707 89.3627 331.792 89.832 331.792C90.376 331.792 90.8507 331.685 91.256 331.472C91.6613 331.259 91.9867 330.981 92.232 330.64L94.136 332.432ZM103.425 329.984C103.425 330.635 103.308 331.227 103.073 331.76C102.838 332.283 102.518 332.731 102.113 333.104C101.708 333.467 101.238 333.749 100.705 333.952C100.172 334.155 99.6011 334.256 98.9931 334.256C98.3958 334.256 97.8251 334.155 97.2811 333.952C96.7478 333.749 96.2785 333.467 95.8731 333.104C95.4785 332.731 95.1638 332.283 94.9291 331.76C94.6945 331.227 94.5771 330.635 94.5771 329.984C94.5771 329.333 94.6945 328.747 94.9291 328.224C95.1638 327.701 95.4785 327.259 95.8731 326.896C96.2785 326.533 96.7478 326.256 97.2811 326.064C97.8251 325.872 98.3958 325.776 98.9931 325.776C99.6011 325.776 100.172 325.872 100.705 326.064C101.238 326.256 101.708 326.533 102.113 326.896C102.518 327.259 102.838 327.701 103.073 328.224C103.308 328.747 103.425 329.333 103.425 329.984ZM100.897 329.984C100.897 329.728 100.854 329.477 100.769 329.232C100.684 328.987 100.561 328.773 100.401 328.592C100.241 328.4 100.044 328.245 99.8091 328.128C99.5745 328.011 99.3025 327.952 98.9931 327.952C98.6838 327.952 98.4118 328.011 98.1771 328.128C97.9425 328.245 97.7451 328.4 97.5851 328.592C97.4358 328.773 97.3185 328.987 97.2331 329.232C97.1585 329.477 97.1211 329.728 97.1211 329.984C97.1211 330.24 97.1585 330.491 97.2331 330.736C97.3185 330.981 97.4411 331.205 97.6011 331.408C97.7611 331.6 97.9585 331.755 98.1931 331.872C98.4278 331.989 98.6998 332.048 99.0091 332.048C99.3185 332.048 99.5905 331.989 99.8251 331.872C100.06 331.755 100.257 331.6 100.417 331.408C100.577 331.205 100.694 330.981 100.769 330.736C100.854 330.491 100.897 330.24 100.897 329.984ZM110.319 334V329.648C110.319 329.424 110.297 329.211 110.255 329.008C110.223 328.805 110.164 328.629 110.079 328.48C109.993 328.32 109.871 328.197 109.711 328.112C109.561 328.016 109.369 327.968 109.135 327.968C108.9 327.968 108.692 328.016 108.511 328.112C108.34 328.197 108.196 328.32 108.079 328.48C107.961 328.64 107.871 328.827 107.807 329.04C107.753 329.243 107.727 329.456 107.727 329.68V334H105.087V326.032H107.631V327.136H107.663C107.759 326.965 107.881 326.8 108.031 326.64C108.191 326.469 108.372 326.325 108.575 326.208C108.788 326.091 109.017 325.995 109.263 325.92C109.508 325.845 109.769 325.808 110.047 325.808C110.58 325.808 111.033 325.904 111.407 326.096C111.78 326.288 112.079 326.539 112.303 326.848C112.537 327.147 112.703 327.493 112.799 327.888C112.905 328.283 112.959 328.677 112.959 329.072V334H110.319ZM117.794 328V331.04C117.794 331.413 117.863 331.696 118.002 331.888C118.151 332.069 118.413 332.16 118.786 332.16C118.914 332.16 119.047 332.149 119.186 332.128C119.335 332.107 119.458 332.075 119.554 332.032L119.586 333.952C119.405 334.016 119.175 334.069 118.898 334.112C118.621 334.165 118.343 334.192 118.066 334.192C117.533 334.192 117.085 334.128 116.722 334C116.359 333.861 116.066 333.669 115.842 333.424C115.629 333.168 115.474 332.869 115.378 332.528C115.282 332.176 115.234 331.787 115.234 331.36V328H113.954V326.032H115.218V323.936H117.794V326.032H119.666V328H117.794ZM123.747 323.488C123.747 323.691 123.704 323.883 123.619 324.064C123.544 324.235 123.438 324.384 123.299 324.512C123.171 324.64 123.011 324.741 122.819 324.816C122.638 324.891 122.446 324.928 122.243 324.928C121.816 324.928 121.459 324.789 121.171 324.512C120.883 324.224 120.739 323.883 120.739 323.488C120.739 323.296 120.776 323.115 120.851 322.944C120.926 322.763 121.032 322.608 121.171 322.48C121.31 322.352 121.47 322.251 121.651 322.176C121.832 322.091 122.03 322.048 122.243 322.048C122.446 322.048 122.638 322.085 122.819 322.16C123.011 322.235 123.171 322.336 123.299 322.464C123.438 322.592 123.544 322.747 123.619 322.928C123.704 323.099 123.747 323.285 123.747 323.488ZM120.931 334V326.032H123.555V334H120.931ZM130.865 334V329.648C130.865 329.424 130.844 329.211 130.801 329.008C130.769 328.805 130.711 328.629 130.625 328.48C130.54 328.32 130.417 328.197 130.257 328.112C130.108 328.016 129.916 327.968 129.681 327.968C129.447 327.968 129.239 328.016 129.057 328.112C128.887 328.197 128.743 328.32 128.625 328.48C128.508 328.64 128.417 328.827 128.353 329.04C128.3 329.243 128.273 329.456 128.273 329.68V334H125.633V326.032H128.177V327.136H128.209C128.305 326.965 128.428 326.8 128.577 326.64C128.737 326.469 128.919 326.325 129.121 326.208C129.335 326.091 129.564 325.995 129.809 325.92C130.055 325.845 130.316 325.808 130.593 325.808C131.127 325.808 131.58 325.904 131.953 326.096C132.327 326.288 132.625 326.539 132.849 326.848C133.084 327.147 133.249 327.493 133.345 327.888C133.452 328.283 133.505 328.677 133.505 329.072V334H130.865ZM140.741 334V332.896H140.709C140.613 333.077 140.485 333.248 140.325 333.408C140.175 333.568 139.994 333.707 139.781 333.824C139.578 333.941 139.349 334.037 139.093 334.112C138.847 334.187 138.586 334.224 138.309 334.224C137.775 334.224 137.322 334.128 136.949 333.936C136.586 333.744 136.287 333.499 136.053 333.2C135.829 332.891 135.663 332.544 135.557 332.16C135.461 331.765 135.413 331.365 135.413 330.96V326.032H138.053V330.352C138.053 330.576 138.069 330.789 138.101 330.992C138.133 331.195 138.191 331.376 138.277 331.536C138.373 331.696 138.495 331.824 138.645 331.92C138.794 332.005 138.991 332.048 139.237 332.048C139.695 332.048 140.042 331.877 140.277 331.536C140.522 331.195 140.645 330.795 140.645 330.336V326.032H143.269V334H140.741ZM150.809 329.104C150.809 328.688 150.676 328.331 150.409 328.032C150.153 327.733 149.764 327.584 149.241 327.584C148.985 327.584 148.75 327.627 148.537 327.712C148.324 327.787 148.137 327.893 147.977 328.032C147.817 328.171 147.689 328.336 147.593 328.528C147.497 328.709 147.444 328.901 147.433 329.104H150.809ZM153.225 330.112C153.225 330.219 153.225 330.325 153.225 330.432C153.225 330.539 153.22 330.64 153.209 330.736H147.433C147.454 330.96 147.518 331.163 147.625 331.344C147.742 331.525 147.886 331.685 148.057 331.824C148.238 331.952 148.436 332.053 148.649 332.128C148.873 332.203 149.102 332.24 149.337 332.24C149.753 332.24 150.105 332.165 150.393 332.016C150.681 331.856 150.916 331.653 151.097 331.408L152.921 332.56C152.548 333.104 152.052 333.525 151.433 333.824C150.825 334.112 150.116 334.256 149.305 334.256C148.708 334.256 148.142 334.165 147.609 333.984C147.076 333.792 146.606 333.52 146.201 333.168C145.806 332.805 145.492 332.363 145.257 331.84C145.033 331.317 144.921 330.72 144.921 330.048C144.921 329.397 145.033 328.811 145.257 328.288C145.481 327.755 145.785 327.307 146.169 326.944C146.553 326.571 147.006 326.283 147.529 326.08C148.052 325.877 148.617 325.776 149.225 325.776C149.812 325.776 150.35 325.877 150.841 326.08C151.332 326.272 151.753 326.555 152.105 326.928C152.457 327.301 152.729 327.755 152.921 328.288C153.124 328.821 153.225 329.429 153.225 330.112ZM168.996 334H166.356L164.788 329.04H164.756L163.22 334H160.58L157.828 326.032H160.66L162.036 331.072H162.084L163.508 326.032H166.148L167.62 331.072H167.652L169.044 326.032H171.764L168.996 334ZM175.638 323.488C175.638 323.691 175.595 323.883 175.51 324.064C175.435 324.235 175.328 324.384 175.19 324.512C175.062 324.64 174.902 324.741 174.71 324.816C174.528 324.891 174.336 324.928 174.134 324.928C173.707 324.928 173.35 324.789 173.062 324.512C172.774 324.224 172.63 323.883 172.63 323.488C172.63 323.296 172.667 323.115 172.742 322.944C172.816 322.763 172.923 322.608 173.062 322.48C173.2 322.352 173.36 322.251 173.542 322.176C173.723 322.091 173.92 322.048 174.134 322.048C174.336 322.048 174.528 322.085 174.71 322.16C174.902 322.235 175.062 322.336 175.19 322.464C175.328 322.592 175.435 322.747 175.51 322.928C175.595 323.099 175.638 323.285 175.638 323.488ZM172.822 334V326.032H175.446V334H172.822ZM180.372 328V331.04C180.372 331.413 180.441 331.696 180.58 331.888C180.729 332.069 180.991 332.16 181.364 332.16C181.492 332.16 181.625 332.149 181.764 332.128C181.913 332.107 182.036 332.075 182.132 332.032L182.164 333.952C181.983 334.016 181.753 334.069 181.476 334.112C181.199 334.165 180.921 334.192 180.644 334.192C180.111 334.192 179.663 334.128 179.3 334C178.937 333.861 178.644 333.669 178.42 333.424C178.207 333.168 178.052 332.869 177.956 332.528C177.86 332.176 177.812 331.787 177.812 331.36V328H176.532V326.032H177.796V323.936H180.372V326.032H182.244V328H180.372ZM188.725 334V329.68C188.725 329.456 188.709 329.243 188.677 329.04C188.645 328.837 188.581 328.661 188.485 328.512C188.4 328.352 188.282 328.229 188.133 328.144C187.984 328.048 187.792 328 187.557 328C187.098 328 186.746 328.165 186.501 328.496C186.256 328.816 186.133 329.216 186.133 329.696V334H183.509V321.904H186.133V327.04H186.165C186.346 326.72 186.634 326.437 187.029 326.192C187.424 325.936 187.898 325.808 188.453 325.808C188.997 325.808 189.45 325.904 189.813 326.096C190.186 326.288 190.485 326.539 190.709 326.848C190.944 327.147 191.109 327.493 191.205 327.888C191.312 328.283 191.365 328.677 191.365 329.072V334H188.725ZM204.895 334L204.015 331.776H199.631L198.799 334H195.823L200.575 322.672H203.231L207.935 334H204.895ZM201.855 325.696L200.415 329.584H203.263L201.855 325.696ZM217.591 329.984C217.591 330.539 217.506 331.072 217.335 331.584C217.164 332.096 216.914 332.549 216.583 332.944C216.263 333.328 215.868 333.637 215.399 333.872C214.93 334.107 214.396 334.224 213.799 334.224C213.308 334.224 212.844 334.128 212.407 333.936C211.97 333.733 211.628 333.461 211.383 333.12H211.351V337.84H208.727V326.032H211.223V327.008H211.271C211.516 326.688 211.852 326.411 212.279 326.176C212.716 325.931 213.228 325.808 213.815 325.808C214.391 325.808 214.914 325.92 215.383 326.144C215.852 326.368 216.247 326.672 216.567 327.056C216.898 327.44 217.148 327.888 217.319 328.4C217.5 328.901 217.591 329.429 217.591 329.984ZM215.047 329.984C215.047 329.728 215.004 329.477 214.919 329.232C214.844 328.987 214.727 328.773 214.567 328.592C214.418 328.4 214.226 328.245 213.991 328.128C213.756 328.011 213.484 327.952 213.175 327.952C212.876 327.952 212.61 328.011 212.375 328.128C212.14 328.245 211.938 328.4 211.767 328.592C211.607 328.784 211.479 329.003 211.383 329.248C211.298 329.493 211.255 329.744 211.255 330C211.255 330.256 211.298 330.507 211.383 330.752C211.479 330.997 211.607 331.216 211.767 331.408C211.938 331.6 212.14 331.755 212.375 331.872C212.61 331.989 212.876 332.048 213.175 332.048C213.484 332.048 213.756 331.989 213.991 331.872C214.226 331.755 214.418 331.6 214.567 331.408C214.727 331.216 214.844 330.997 214.919 330.752C215.004 330.496 215.047 330.24 215.047 329.984ZM228.107 329.984C228.107 330.539 228.021 331.072 227.851 331.584C227.68 332.096 227.429 332.549 227.099 332.944C226.779 333.328 226.384 333.637 225.915 333.872C225.445 334.107 224.912 334.224 224.315 334.224C223.824 334.224 223.36 334.128 222.923 333.936C222.485 333.733 222.144 333.461 221.899 333.12H221.867V337.84H219.243V326.032H221.739V327.008H221.787C222.032 326.688 222.368 326.411 222.795 326.176C223.232 325.931 223.744 325.808 224.331 325.808C224.907 325.808 225.429 325.92 225.899 326.144C226.368 326.368 226.763 326.672 227.083 327.056C227.413 327.44 227.664 327.888 227.835 328.4C228.016 328.901 228.107 329.429 228.107 329.984ZM225.563 329.984C225.563 329.728 225.52 329.477 225.435 329.232C225.36 328.987 225.243 328.773 225.083 328.592C224.933 328.4 224.741 328.245 224.507 328.128C224.272 328.011 224 327.952 223.691 327.952C223.392 327.952 223.125 328.011 222.891 328.128C222.656 328.245 222.453 328.4 222.283 328.592C222.123 328.784 221.995 329.003 221.899 329.248C221.813 329.493 221.771 329.744 221.771 330C221.771 330.256 221.813 330.507 221.899 330.752C221.995 330.997 222.123 331.216 222.283 331.408C222.453 331.6 222.656 331.755 222.891 331.872C223.125 331.989 223.392 332.048 223.691 332.048C224 332.048 224.272 331.989 224.507 331.872C224.741 331.755 224.933 331.6 225.083 331.408C225.243 331.216 225.36 330.997 225.435 330.752C225.52 330.496 225.563 330.24 225.563 329.984ZM229.79 334V321.904H232.446V334H229.79ZM240.012 329.104C240.012 328.688 239.879 328.331 239.612 328.032C239.356 327.733 238.967 327.584 238.444 327.584C238.188 327.584 237.953 327.627 237.74 327.712C237.527 327.787 237.34 327.893 237.18 328.032C237.02 328.171 236.892 328.336 236.796 328.528C236.7 328.709 236.647 328.901 236.636 329.104H240.012ZM242.428 330.112C242.428 330.219 242.428 330.325 242.428 330.432C242.428 330.539 242.423 330.64 242.412 330.736H236.636C236.657 330.96 236.721 331.163 236.828 331.344C236.945 331.525 237.089 331.685 237.26 331.824C237.441 331.952 237.639 332.053 237.852 332.128C238.076 332.203 238.305 332.24 238.54 332.24C238.956 332.24 239.308 332.165 239.596 332.016C239.884 331.856 240.119 331.653 240.3 331.408L242.124 332.56C241.751 333.104 241.255 333.525 240.636 333.824C240.028 334.112 239.319 334.256 238.508 334.256C237.911 334.256 237.345 334.165 236.812 333.984C236.279 333.792 235.809 333.52 235.404 333.168C235.009 332.805 234.695 332.363 234.46 331.84C234.236 331.317 234.124 330.72 234.124 330.048C234.124 329.397 234.236 328.811 234.46 328.288C234.684 327.755 234.988 327.307 235.372 326.944C235.756 326.571 236.209 326.283 236.732 326.08C237.255 325.877 237.82 325.776 238.428 325.776C239.015 325.776 239.553 325.877 240.044 326.08C240.535 326.272 240.956 326.555 241.308 326.928C241.66 327.301 241.932 327.755 242.124 328.288C242.327 328.821 242.428 329.429 242.428 330.112Z" fill="#F5F5F5"/>
<path d="M141.241 383V370.964H144.165V380.467H148.823V383H141.241ZM158.713 378.733C158.713 379.424 158.589 380.053 158.339 380.62C158.09 381.175 157.75 381.651 157.319 382.048C156.889 382.433 156.39 382.734 155.823 382.949C155.257 383.164 154.65 383.272 154.004 383.272C153.37 383.272 152.763 383.164 152.185 382.949C151.619 382.734 151.12 382.433 150.689 382.048C150.27 381.651 149.936 381.175 149.686 380.62C149.437 380.053 149.312 379.424 149.312 378.733C149.312 378.042 149.437 377.418 149.686 376.863C149.936 376.308 150.27 375.837 150.689 375.452C151.12 375.067 151.619 374.772 152.185 374.568C152.763 374.364 153.37 374.262 154.004 374.262C154.65 374.262 155.257 374.364 155.823 374.568C156.39 374.772 156.889 375.067 157.319 375.452C157.75 375.837 158.09 376.308 158.339 376.863C158.589 377.418 158.713 378.042 158.713 378.733ZM156.027 378.733C156.027 378.461 155.982 378.195 155.891 377.934C155.801 377.673 155.67 377.447 155.5 377.254C155.33 377.05 155.121 376.886 154.871 376.761C154.622 376.636 154.333 376.574 154.004 376.574C153.676 376.574 153.387 376.636 153.137 376.761C152.888 376.886 152.678 377.05 152.508 377.254C152.35 377.447 152.225 377.673 152.134 377.934C152.055 378.195 152.015 378.461 152.015 378.733C152.015 379.005 152.055 379.271 152.134 379.532C152.225 379.793 152.355 380.031 152.525 380.246C152.695 380.45 152.905 380.614 153.154 380.739C153.404 380.864 153.693 380.926 154.021 380.926C154.35 380.926 154.639 380.864 154.888 380.739C155.138 380.614 155.347 380.45 155.517 380.246C155.687 380.031 155.812 379.793 155.891 379.532C155.982 379.271 156.027 379.005 156.027 378.733ZM169.455 382.201C169.455 383.028 169.336 383.748 169.098 384.36C168.86 384.972 168.525 385.476 168.095 385.873C167.664 386.281 167.137 386.581 166.514 386.774C165.902 386.978 165.222 387.08 164.474 387.08C163.726 387.08 162.955 386.967 162.162 386.74C161.38 386.513 160.7 386.185 160.122 385.754L161.516 383.765C161.924 384.128 162.371 384.394 162.859 384.564C163.357 384.745 163.845 384.836 164.321 384.836C165.137 384.836 165.737 384.621 166.123 384.19C166.519 383.759 166.718 383.187 166.718 382.473V381.963H166.667C166.406 382.303 166.055 382.575 165.613 382.779C165.171 382.983 164.666 383.085 164.1 383.085C163.454 383.085 162.881 382.972 162.383 382.745C161.884 382.507 161.459 382.19 161.108 381.793C160.768 381.396 160.507 380.937 160.326 380.416C160.144 379.883 160.054 379.322 160.054 378.733C160.054 378.144 160.144 377.583 160.326 377.05C160.507 376.517 160.768 376.047 161.108 375.639C161.459 375.231 161.884 374.908 162.383 374.67C162.881 374.421 163.448 374.296 164.083 374.296C164.615 374.296 165.125 374.404 165.613 374.619C166.1 374.834 166.491 375.169 166.786 375.622H166.82V374.534H169.455V382.201ZM166.803 378.716C166.803 378.433 166.752 378.161 166.65 377.9C166.559 377.639 166.423 377.413 166.242 377.22C166.06 377.016 165.845 376.857 165.596 376.744C165.346 376.631 165.063 376.574 164.746 376.574C164.428 376.574 164.145 376.631 163.896 376.744C163.658 376.857 163.454 377.01 163.284 377.203C163.114 377.396 162.983 377.622 162.893 377.883C162.802 378.144 162.757 378.421 162.757 378.716C162.757 378.999 162.802 379.271 162.893 379.532C162.983 379.793 163.114 380.025 163.284 380.229C163.454 380.422 163.658 380.58 163.896 380.705C164.145 380.818 164.428 380.875 164.746 380.875C165.063 380.875 165.346 380.818 165.596 380.705C165.856 380.58 166.072 380.422 166.242 380.229C166.423 380.036 166.559 379.81 166.65 379.549C166.752 379.288 166.803 379.011 166.803 378.716ZM178.944 371.831C178.944 372.046 178.899 372.25 178.808 372.443C178.729 372.624 178.615 372.783 178.468 372.919C178.332 373.055 178.162 373.163 177.958 373.242C177.765 373.321 177.561 373.361 177.346 373.361C176.893 373.361 176.513 373.214 176.207 372.919C175.901 372.613 175.748 372.25 175.748 371.831C175.748 371.627 175.788 371.434 175.867 371.253C175.946 371.06 176.06 370.896 176.207 370.76C176.354 370.624 176.524 370.516 176.717 370.437C176.91 370.346 177.119 370.301 177.346 370.301C177.561 370.301 177.765 370.341 177.958 370.42C178.162 370.499 178.332 370.607 178.468 370.743C178.615 370.879 178.729 371.043 178.808 371.236C178.899 371.417 178.944 371.616 178.944 371.831ZM175.952 383V374.534H178.74V383H175.952ZM186.507 383V378.376C186.507 378.138 186.485 377.911 186.439 377.696C186.405 377.481 186.343 377.294 186.252 377.135C186.162 376.965 186.031 376.835 185.861 376.744C185.703 376.642 185.499 376.591 185.249 376.591C185 376.591 184.779 376.642 184.586 376.744C184.405 376.835 184.252 376.965 184.127 377.135C184.003 377.305 183.906 377.503 183.838 377.73C183.782 377.945 183.753 378.172 183.753 378.41V383H180.948V374.534H183.651V375.707H183.685C183.787 375.526 183.918 375.35 184.076 375.18C184.246 374.999 184.439 374.846 184.654 374.721C184.881 374.596 185.125 374.494 185.385 374.415C185.646 374.336 185.924 374.296 186.218 374.296C186.785 374.296 187.267 374.398 187.663 374.602C188.06 374.806 188.377 375.072 188.615 375.401C188.865 375.718 189.04 376.087 189.142 376.506C189.256 376.925 189.312 377.345 189.312 377.764V383H186.507Z" fill="#F5F5F5"/>
<path d="M94.136 271.432C93.6347 272.008 93.016 272.467 92.28 272.808C91.544 273.139 90.696 273.304 89.736 273.304C88.8613 273.304 88.0507 273.16 87.304 272.872C86.568 272.584 85.928 272.179 85.384 271.656C84.84 271.123 84.4133 270.488 84.104 269.752C83.7947 269.016 83.64 268.205 83.64 267.32C83.64 266.413 83.7947 265.592 84.104 264.856C84.424 264.12 84.8613 263.496 85.416 262.984C85.9707 262.461 86.6213 262.061 87.368 261.784C88.1147 261.507 88.92 261.368 89.784 261.368C90.584 261.368 91.368 261.512 92.136 261.8C92.9147 262.077 93.544 262.488 94.024 263.032L92.168 264.888C91.912 264.536 91.576 264.275 91.16 264.104C90.744 263.933 90.3173 263.848 89.88 263.848C89.4 263.848 88.9573 263.939 88.552 264.12C88.1573 264.291 87.816 264.531 87.528 264.84C87.24 265.149 87.016 265.517 86.856 265.944C86.696 266.36 86.616 266.819 86.616 267.32C86.616 267.832 86.696 268.301 86.856 268.728C87.016 269.155 87.2347 269.523 87.512 269.832C87.8 270.131 88.1413 270.365 88.536 270.536C88.9307 270.707 89.3627 270.792 89.832 270.792C90.376 270.792 90.8507 270.685 91.256 270.472C91.6613 270.259 91.9867 269.981 92.232 269.64L94.136 271.432ZM103.425 268.984C103.425 269.635 103.308 270.227 103.073 270.76C102.838 271.283 102.518 271.731 102.113 272.104C101.708 272.467 101.238 272.749 100.705 272.952C100.172 273.155 99.6011 273.256 98.9931 273.256C98.3958 273.256 97.8251 273.155 97.2811 272.952C96.7478 272.749 96.2785 272.467 95.8731 272.104C95.4785 271.731 95.1638 271.283 94.9291 270.76C94.6945 270.227 94.5771 269.635 94.5771 268.984C94.5771 268.333 94.6945 267.747 94.9291 267.224C95.1638 266.701 95.4785 266.259 95.8731 265.896C96.2785 265.533 96.7478 265.256 97.2811 265.064C97.8251 264.872 98.3958 264.776 98.9931 264.776C99.6011 264.776 100.172 264.872 100.705 265.064C101.238 265.256 101.708 265.533 102.113 265.896C102.518 266.259 102.838 266.701 103.073 267.224C103.308 267.747 103.425 268.333 103.425 268.984ZM100.897 268.984C100.897 268.728 100.854 268.477 100.769 268.232C100.684 267.987 100.561 267.773 100.401 267.592C100.241 267.4 100.044 267.245 99.8091 267.128C99.5745 267.011 99.3025 266.952 98.9931 266.952C98.6838 266.952 98.4118 267.011 98.1771 267.128C97.9425 267.245 97.7451 267.4 97.5851 267.592C97.4358 267.773 97.3185 267.987 97.2331 268.232C97.1585 268.477 97.1211 268.728 97.1211 268.984C97.1211 269.24 97.1585 269.491 97.2331 269.736C97.3185 269.981 97.4411 270.205 97.6011 270.408C97.7611 270.6 97.9585 270.755 98.1931 270.872C98.4278 270.989 98.6998 271.048 99.0091 271.048C99.3185 271.048 99.5905 270.989 99.8251 270.872C100.06 270.755 100.257 270.6 100.417 270.408C100.577 270.205 100.694 269.981 100.769 269.736C100.854 269.491 100.897 269.24 100.897 268.984ZM110.319 273V268.648C110.319 268.424 110.297 268.211 110.255 268.008C110.223 267.805 110.164 267.629 110.079 267.48C109.993 267.32 109.871 267.197 109.711 267.112C109.561 267.016 109.369 266.968 109.135 266.968C108.9 266.968 108.692 267.016 108.511 267.112C108.34 267.197 108.196 267.32 108.079 267.48C107.961 267.64 107.871 267.827 107.807 268.04C107.753 268.243 107.727 268.456 107.727 268.68V273H105.087V265.032H107.631V266.136H107.663C107.759 265.965 107.881 265.8 108.031 265.64C108.191 265.469 108.372 265.325 108.575 265.208C108.788 265.091 109.017 264.995 109.263 264.92C109.508 264.845 109.769 264.808 110.047 264.808C110.58 264.808 111.033 264.904 111.407 265.096C111.78 265.288 112.079 265.539 112.303 265.848C112.537 266.147 112.703 266.493 112.799 266.888C112.905 267.283 112.959 267.677 112.959 268.072V273H110.319ZM117.794 267V270.04C117.794 270.413 117.863 270.696 118.002 270.888C118.151 271.069 118.413 271.16 118.786 271.16C118.914 271.16 119.047 271.149 119.186 271.128C119.335 271.107 119.458 271.075 119.554 271.032L119.586 272.952C119.405 273.016 119.175 273.069 118.898 273.112C118.621 273.165 118.343 273.192 118.066 273.192C117.533 273.192 117.085 273.128 116.722 273C116.359 272.861 116.066 272.669 115.842 272.424C115.629 272.168 115.474 271.869 115.378 271.528C115.282 271.176 115.234 270.787 115.234 270.36V267H113.954V265.032H115.218V262.936H117.794V265.032H119.666V267H117.794ZM123.747 262.488C123.747 262.691 123.704 262.883 123.619 263.064C123.544 263.235 123.438 263.384 123.299 263.512C123.171 263.64 123.011 263.741 122.819 263.816C122.638 263.891 122.446 263.928 122.243 263.928C121.816 263.928 121.459 263.789 121.171 263.512C120.883 263.224 120.739 262.883 120.739 262.488C120.739 262.296 120.776 262.115 120.851 261.944C120.926 261.763 121.032 261.608 121.171 261.48C121.31 261.352 121.47 261.251 121.651 261.176C121.832 261.091 122.03 261.048 122.243 261.048C122.446 261.048 122.638 261.085 122.819 261.16C123.011 261.235 123.171 261.336 123.299 261.464C123.438 261.592 123.544 261.747 123.619 261.928C123.704 262.099 123.747 262.285 123.747 262.488ZM120.931 273V265.032H123.555V273H120.931ZM130.865 273V268.648C130.865 268.424 130.844 268.211 130.801 268.008C130.769 267.805 130.711 267.629 130.625 267.48C130.54 267.32 130.417 267.197 130.257 267.112C130.108 267.016 129.916 266.968 129.681 266.968C129.447 266.968 129.239 267.016 129.057 267.112C128.887 267.197 128.743 267.32 128.625 267.48C128.508 267.64 128.417 267.827 128.353 268.04C128.3 268.243 128.273 268.456 128.273 268.68V273H125.633V265.032H128.177V266.136H128.209C128.305 265.965 128.428 265.8 128.577 265.64C128.737 265.469 128.919 265.325 129.121 265.208C129.335 265.091 129.564 264.995 129.809 264.92C130.055 264.845 130.316 264.808 130.593 264.808C131.127 264.808 131.58 264.904 131.953 265.096C132.327 265.288 132.625 265.539 132.849 265.848C133.084 266.147 133.249 266.493 133.345 266.888C133.452 267.283 133.505 267.677 133.505 268.072V273H130.865ZM140.741 273V271.896H140.709C140.613 272.077 140.485 272.248 140.325 272.408C140.175 272.568 139.994 272.707 139.781 272.824C139.578 272.941 139.349 273.037 139.093 273.112C138.847 273.187 138.586 273.224 138.309 273.224C137.775 273.224 137.322 273.128 136.949 272.936C136.586 272.744 136.287 272.499 136.053 272.2C135.829 271.891 135.663 271.544 135.557 271.16C135.461 270.765 135.413 270.365 135.413 269.96V265.032H138.053V269.352C138.053 269.576 138.069 269.789 138.101 269.992C138.133 270.195 138.191 270.376 138.277 270.536C138.373 270.696 138.495 270.824 138.645 270.92C138.794 271.005 138.991 271.048 139.237 271.048C139.695 271.048 140.042 270.877 140.277 270.536C140.522 270.195 140.645 269.795 140.645 269.336V265.032H143.269V273H140.741ZM150.809 268.104C150.809 267.688 150.676 267.331 150.409 267.032C150.153 266.733 149.764 266.584 149.241 266.584C148.985 266.584 148.75 266.627 148.537 266.712C148.324 266.787 148.137 266.893 147.977 267.032C147.817 267.171 147.689 267.336 147.593 267.528C147.497 267.709 147.444 267.901 147.433 268.104H150.809ZM153.225 269.112C153.225 269.219 153.225 269.325 153.225 269.432C153.225 269.539 153.22 269.64 153.209 269.736H147.433C147.454 269.96 147.518 270.163 147.625 270.344C147.742 270.525 147.886 270.685 148.057 270.824C148.238 270.952 148.436 271.053 148.649 271.128C148.873 271.203 149.102 271.24 149.337 271.24C149.753 271.24 150.105 271.165 150.393 271.016C150.681 270.856 150.916 270.653 151.097 270.408L152.921 271.56C152.548 272.104 152.052 272.525 151.433 272.824C150.825 273.112 150.116 273.256 149.305 273.256C148.708 273.256 148.142 273.165 147.609 272.984C147.076 272.792 146.606 272.52 146.201 272.168C145.806 271.805 145.492 271.363 145.257 270.84C145.033 270.317 144.921 269.72 144.921 269.048C144.921 268.397 145.033 267.811 145.257 267.288C145.481 266.755 145.785 266.307 146.169 265.944C146.553 265.571 147.006 265.283 147.529 265.08C148.052 264.877 148.617 264.776 149.225 264.776C149.812 264.776 150.35 264.877 150.841 265.08C151.332 265.272 151.753 265.555 152.105 265.928C152.457 266.301 152.729 266.755 152.921 267.288C153.124 267.821 153.225 268.429 153.225 269.112ZM168.996 273H166.356L164.788 268.04H164.756L163.22 273H160.58L157.828 265.032H160.66L162.036 270.072H162.084L163.508 265.032H166.148L167.62 270.072H167.652L169.044 265.032H171.764L168.996 273ZM175.638 262.488C175.638 262.691 175.595 262.883 175.51 263.064C175.435 263.235 175.328 263.384 175.19 263.512C175.062 263.64 174.902 263.741 174.71 263.816C174.528 263.891 174.336 263.928 174.134 263.928C173.707 263.928 173.35 263.789 173.062 263.512C172.774 263.224 172.63 262.883 172.63 262.488C172.63 262.296 172.667 262.115 172.742 261.944C172.816 261.763 172.923 261.608 173.062 261.48C173.2 261.352 173.36 261.251 173.542 261.176C173.723 261.091 173.92 261.048 174.134 261.048C174.336 261.048 174.528 261.085 174.71 261.16C174.902 261.235 175.062 261.336 175.19 261.464C175.328 261.592 175.435 261.747 175.51 261.928C175.595 262.099 175.638 262.285 175.638 262.488ZM172.822 273V265.032H175.446V273H172.822ZM180.372 267V270.04C180.372 270.413 180.441 270.696 180.58 270.888C180.729 271.069 180.991 271.16 181.364 271.16C181.492 271.16 181.625 271.149 181.764 271.128C181.913 271.107 182.036 271.075 182.132 271.032L182.164 272.952C181.983 273.016 181.753 273.069 181.476 273.112C181.199 273.165 180.921 273.192 180.644 273.192C180.111 273.192 179.663 273.128 179.3 273C178.937 272.861 178.644 272.669 178.42 272.424C178.207 272.168 178.052 271.869 177.956 271.528C177.86 271.176 177.812 270.787 177.812 270.36V267H176.532V265.032H177.796V262.936H180.372V265.032H182.244V267H180.372ZM188.725 273V268.68C188.725 268.456 188.709 268.243 188.677 268.04C188.645 267.837 188.581 267.661 188.485 267.512C188.4 267.352 188.282 267.229 188.133 267.144C187.984 267.048 187.792 267 187.557 267C187.098 267 186.746 267.165 186.501 267.496C186.256 267.816 186.133 268.216 186.133 268.696V273H183.509V260.904H186.133V266.04H186.165C186.346 265.72 186.634 265.437 187.029 265.192C187.424 264.936 187.898 264.808 188.453 264.808C188.997 264.808 189.45 264.904 189.813 265.096C190.186 265.288 190.485 265.539 190.709 265.848C190.944 266.147 191.109 266.493 191.205 266.888C191.312 267.283 191.365 267.677 191.365 268.072V273H188.725ZM200.2 264.008V266.344H204.584V268.6H200.2V273H197.496V261.672H204.952V264.008H200.2ZM210.509 269.528H210.173C209.885 269.528 209.592 269.544 209.293 269.576C209.005 269.597 208.744 269.645 208.509 269.72C208.285 269.795 208.099 269.907 207.949 270.056C207.8 270.195 207.725 270.381 207.725 270.616C207.725 270.765 207.757 270.893 207.821 271C207.896 271.107 207.987 271.192 208.093 271.256C208.2 271.32 208.323 271.368 208.461 271.4C208.6 271.421 208.733 271.432 208.861 271.432C209.395 271.432 209.8 271.288 210.077 271C210.365 270.701 210.509 270.301 210.509 269.8V269.528ZM205.693 266.12C206.163 265.672 206.707 265.336 207.325 265.112C207.955 264.888 208.595 264.776 209.245 264.776C209.917 264.776 210.483 264.861 210.941 265.032C211.411 265.192 211.789 265.448 212.077 265.8C212.365 266.141 212.573 266.579 212.701 267.112C212.84 267.635 212.909 268.259 212.909 268.984V273H210.509V272.152H210.461C210.259 272.483 209.949 272.739 209.533 272.92C209.128 273.101 208.685 273.192 208.205 273.192C207.885 273.192 207.555 273.149 207.213 273.064C206.872 272.979 206.557 272.84 206.269 272.648C205.992 272.456 205.763 272.2 205.581 271.88C205.4 271.56 205.309 271.165 205.309 270.696C205.309 270.12 205.464 269.656 205.773 269.304C206.093 268.952 206.499 268.68 206.989 268.488C207.491 268.296 208.045 268.168 208.653 268.104C209.261 268.04 209.853 268.008 210.429 268.008V267.88C210.429 267.485 210.291 267.197 210.013 267.016C209.736 266.824 209.395 266.728 208.989 266.728C208.616 266.728 208.253 266.808 207.901 266.968C207.56 267.128 207.267 267.32 207.021 267.544L205.693 266.12ZM220.356 267.608C220.206 267.416 220.004 267.261 219.748 267.144C219.492 267.027 219.23 266.968 218.964 266.968C218.686 266.968 218.436 267.027 218.212 267.144C217.988 267.251 217.796 267.4 217.636 267.592C217.476 267.773 217.348 267.987 217.252 268.232C217.166 268.477 217.124 268.739 217.124 269.016C217.124 269.293 217.166 269.555 217.252 269.8C217.337 270.045 217.46 270.264 217.62 270.456C217.79 270.637 217.988 270.781 218.212 270.888C218.446 270.995 218.708 271.048 218.996 271.048C219.262 271.048 219.524 271 219.78 270.904C220.046 270.797 220.26 270.648 220.42 270.456L221.876 272.232C221.545 272.552 221.118 272.803 220.596 272.984C220.073 273.165 219.518 273.256 218.932 273.256C218.302 273.256 217.716 273.16 217.172 272.968C216.628 272.776 216.153 272.499 215.748 272.136C215.353 271.763 215.038 271.315 214.804 270.792C214.58 270.269 214.468 269.677 214.468 269.016C214.468 268.365 214.58 267.779 214.804 267.256C215.038 266.733 215.353 266.291 215.748 265.928C216.153 265.555 216.628 265.272 217.172 265.08C217.716 264.877 218.297 264.776 218.916 264.776C219.204 264.776 219.486 264.803 219.764 264.856C220.052 264.909 220.324 264.984 220.58 265.08C220.846 265.165 221.086 265.277 221.3 265.416C221.524 265.544 221.716 265.688 221.876 265.848L220.356 267.608ZM228.403 268.104C228.403 267.688 228.269 267.331 228.003 267.032C227.747 266.733 227.357 266.584 226.835 266.584C226.579 266.584 226.344 266.627 226.131 266.712C225.917 266.787 225.731 266.893 225.571 267.032C225.411 267.171 225.283 267.336 225.187 267.528C225.091 267.709 225.037 267.901 225.027 268.104H228.403ZM230.819 269.112C230.819 269.219 230.819 269.325 230.819 269.432C230.819 269.539 230.813 269.64 230.803 269.736H225.027C225.048 269.96 225.112 270.163 225.219 270.344C225.336 270.525 225.48 270.685 225.651 270.824C225.832 270.952 226.029 271.053 226.243 271.128C226.467 271.203 226.696 271.24 226.931 271.24C227.347 271.24 227.699 271.165 227.987 271.016C228.275 270.856 228.509 270.653 228.691 270.408L230.515 271.56C230.141 272.104 229.645 272.525 229.027 272.824C228.419 273.112 227.709 273.256 226.899 273.256C226.301 273.256 225.736 273.165 225.203 272.984C224.669 272.792 224.2 272.52 223.795 272.168C223.4 271.805 223.085 271.363 222.851 270.84C222.627 270.317 222.515 269.72 222.515 269.048C222.515 268.397 222.627 267.811 222.851 267.288C223.075 266.755 223.379 266.307 223.763 265.944C224.147 265.571 224.6 265.283 225.123 265.08C225.645 264.877 226.211 264.776 226.819 264.776C227.405 264.776 227.944 264.877 228.435 265.08C228.925 265.272 229.347 265.555 229.699 265.928C230.051 266.301 230.323 266.755 230.515 267.288C230.717 267.821 230.819 268.429 230.819 269.112ZM241.326 268.984C241.326 269.539 241.241 270.072 241.07 270.584C240.899 271.096 240.649 271.549 240.318 271.944C239.998 272.328 239.603 272.637 239.134 272.872C238.665 273.107 238.131 273.224 237.534 273.224C237.001 273.224 236.494 273.117 236.014 272.904C235.545 272.68 235.182 272.365 234.926 271.96H234.894V273H232.478V260.904H235.102V265.88H235.134C235.358 265.613 235.673 265.368 236.078 265.144C236.483 264.92 236.979 264.808 237.566 264.808C238.142 264.808 238.659 264.92 239.118 265.144C239.587 265.368 239.982 265.672 240.302 266.056C240.633 266.44 240.883 266.888 241.054 267.4C241.235 267.901 241.326 268.429 241.326 268.984ZM238.798 268.984C238.798 268.728 238.755 268.477 238.67 268.232C238.595 267.987 238.478 267.773 238.318 267.592C238.158 267.4 237.961 267.245 237.726 267.128C237.491 267.011 237.219 266.952 236.91 266.952C236.611 266.952 236.345 267.011 236.11 267.128C235.875 267.245 235.673 267.4 235.502 267.592C235.342 267.784 235.214 268.003 235.118 268.248C235.033 268.493 234.99 268.744 234.99 269C234.99 269.256 235.033 269.507 235.118 269.752C235.214 269.997 235.342 270.216 235.502 270.408C235.673 270.6 235.875 270.755 236.11 270.872C236.345 270.989 236.611 271.048 236.91 271.048C237.219 271.048 237.491 270.989 237.726 270.872C237.961 270.755 238.158 270.6 238.318 270.408C238.478 270.216 238.595 269.997 238.67 269.752C238.755 269.496 238.798 269.24 238.798 268.984ZM251.441 268.984C251.441 269.635 251.323 270.227 251.089 270.76C250.854 271.283 250.534 271.731 250.129 272.104C249.723 272.467 249.254 272.749 248.721 272.952C248.187 273.155 247.617 273.256 247.009 273.256C246.411 273.256 245.841 273.155 245.297 272.952C244.763 272.749 244.294 272.467 243.889 272.104C243.494 271.731 243.179 271.283 242.945 270.76C242.71 270.227 242.593 269.635 242.593 268.984C242.593 268.333 242.71 267.747 242.945 267.224C243.179 266.701 243.494 266.259 243.889 265.896C244.294 265.533 244.763 265.256 245.297 265.064C245.841 264.872 246.411 264.776 247.009 264.776C247.617 264.776 248.187 264.872 248.721 265.064C249.254 265.256 249.723 265.533 250.129 265.896C250.534 266.259 250.854 266.701 251.089 267.224C251.323 267.747 251.441 268.333 251.441 268.984ZM248.913 268.984C248.913 268.728 248.87 268.477 248.785 268.232C248.699 267.987 248.577 267.773 248.417 267.592C248.257 267.4 248.059 267.245 247.825 267.128C247.59 267.011 247.318 266.952 247.009 266.952C246.699 266.952 246.427 267.011 246.193 267.128C245.958 267.245 245.761 267.4 245.601 267.592C245.451 267.773 245.334 267.987 245.249 268.232C245.174 268.477 245.137 268.728 245.137 268.984C245.137 269.24 245.174 269.491 245.249 269.736C245.334 269.981 245.457 270.205 245.617 270.408C245.777 270.6 245.974 270.755 246.209 270.872C246.443 270.989 246.715 271.048 247.025 271.048C247.334 271.048 247.606 270.989 247.841 270.872C248.075 270.755 248.273 270.6 248.433 270.408C248.593 270.205 248.71 269.981 248.785 269.736C248.87 269.491 248.913 269.24 248.913 268.984ZM261.55 268.984C261.55 269.635 261.433 270.227 261.198 270.76C260.963 271.283 260.643 271.731 260.238 272.104C259.833 272.467 259.363 272.749 258.83 272.952C258.297 273.155 257.726 273.256 257.118 273.256C256.521 273.256 255.95 273.155 255.406 272.952C254.873 272.749 254.403 272.467 253.998 272.104C253.603 271.731 253.289 271.283 253.054 270.76C252.819 270.227 252.702 269.635 252.702 268.984C252.702 268.333 252.819 267.747 253.054 267.224C253.289 266.701 253.603 266.259 253.998 265.896C254.403 265.533 254.873 265.256 255.406 265.064C255.95 264.872 256.521 264.776 257.118 264.776C257.726 264.776 258.297 264.872 258.83 265.064C259.363 265.256 259.833 265.533 260.238 265.896C260.643 266.259 260.963 266.701 261.198 267.224C261.433 267.747 261.55 268.333 261.55 268.984ZM259.022 268.984C259.022 268.728 258.979 268.477 258.894 268.232C258.809 267.987 258.686 267.773 258.526 267.592C258.366 267.4 258.169 267.245 257.934 267.128C257.699 267.011 257.427 266.952 257.118 266.952C256.809 266.952 256.537 267.011 256.302 267.128C256.067 267.245 255.87 267.4 255.71 267.592C255.561 267.773 255.443 267.987 255.358 268.232C255.283 268.477 255.246 268.728 255.246 268.984C255.246 269.24 255.283 269.491 255.358 269.736C255.443 269.981 255.566 270.205 255.726 270.408C255.886 270.6 256.083 270.755 256.318 270.872C256.553 270.989 256.825 271.048 257.134 271.048C257.443 271.048 257.715 270.989 257.95 270.872C258.185 270.755 258.382 270.6 258.542 270.408C258.702 270.205 258.819 269.981 258.894 269.736C258.979 269.491 259.022 269.24 259.022 268.984ZM271.772 273H268.524L265.916 269.176H265.868V273H263.228V260.904H265.868V268.264H265.916L268.46 265.032H271.644L268.572 268.632L271.772 273Z" fill="#F5F5F5"/>
<path d="M34 269C34 263.5 29.5 259 24 259C18.5 259 14 263.5 14 269C14 274 17.625 278.125 22.375 278.875V271.875H19.875V269H22.375V266.75C22.375 264.25 23.875 262.875 26.125 262.875C27.25 262.875 28.375 263.125 28.375 263.125V265.625H27.125C25.875 265.625 25.5 266.375 25.5 267.125V269H28.25L27.75 271.875H25.375V279C30.375 278.25 34 274 34 269Z" fill="#1877F2"/>
<path fill-rule="evenodd" clip-rule="evenodd" d="M34 207.742C34 207.138 33.9403 206.557 33.8295 206H25V209.294H30.0455C29.8281 210.358 29.1676 211.26 28.1747 211.864V214H31.2045C32.9773 212.518 34 210.335 34 207.742Z" fill="#4285F4"/>
<path fill-rule="evenodd" clip-rule="evenodd" d="M25.0433 216C27.4734 216 29.5108 215.226 31 213.906L28.0912 211.738C27.2852 212.256 26.2542 212.563 25.0433 212.563C22.699 212.563 20.7148 211.043 20.007 209H17V211.239C18.481 214.063 21.5248 216 25.0433 216Z" fill="#34A853"/>
<path fill-rule="evenodd" clip-rule="evenodd" d="M20 208.692C19.8184 208.158 19.7152 207.587 19.7152 207C19.7152 206.413 19.8184 205.842 20 205.308V203H16.9659C16.3509 204.202 16 205.563 16 207C16 208.437 16.3509 209.798 16.9659 211L20 208.692Z" fill="#FBBC05"/>
<path fill-rule="evenodd" clip-rule="evenodd" d="M25.0058 201.437C26.3211 201.437 27.502 201.873 28.4305 202.73L31 200.251C29.4485 198.856 27.4206 198 25.0058 198C21.5038 198 18.4741 199.937 17 202.761L19.993 205C20.6975 202.957 22.6725 201.437 25.0058 201.437Z" fill="#EA4335"/>
<path d="M27.083 320.008C27.0476 319.97 25.7718 320.023 24.6617 321.18C23.5515 322.336 23.7223 323.662 23.7473 323.696C23.7723 323.73 25.3303 323.783 26.3248 322.438C27.3194 321.093 27.1184 320.047 27.083 320.008ZM30.5343 331.741C30.4843 331.645 28.1129 330.507 28.3337 328.319C28.5545 326.13 30.0781 325.53 30.1021 325.465C30.126 325.4 29.4803 324.675 28.7961 324.308C28.2938 324.049 27.7378 323.901 27.1684 323.874C27.0559 323.871 26.6654 323.779 25.8624 323.99C25.3334 324.129 24.141 324.579 23.8129 324.597C23.4838 324.615 22.5049 324.075 21.452 323.932C20.7782 323.807 20.0638 324.063 19.5524 324.26C19.0422 324.456 18.0715 325.014 17.3925 326.497C16.7135 327.979 17.0687 330.327 17.3228 331.057C17.5769 331.786 17.9737 332.981 18.6485 333.853C19.2484 334.837 20.044 335.52 20.3762 335.752C20.7084 335.984 21.6457 336.138 22.2956 335.819C22.8184 335.511 23.7619 335.334 24.1347 335.347C24.5065 335.36 25.2397 335.501 25.9905 335.886C26.5852 336.083 27.1475 336.001 27.711 335.781C28.2744 335.56 29.0898 334.722 30.0417 333.023C30.403 332.233 30.5676 331.806 30.5343 331.741Z" fill="white"/>
</svg>
